/* XPM */
static char *_77d68a6cd5f4f37ebda3e90eb2e35e3[] = {
/* columns rows colors chars-per-pixel */
"64 64 173 2 ",
"   c #020202",
".  c #02010B",
"X  c #0B0B0B",
"o  c #07160F",
"O  c #0C130B",
"+  c #131313",
"@  c #1B1B1B",
"#  c #0D3632",
"$  c #1A3628",
"%  c #232323",
"&  c #252E25",
"*  c #2B2B2B",
"=  c #242D33",
"-  c #312938",
";  c #223836",
":  c #2B363C",
">  c #26333C",
",  c #343434",
"<  c #393939",
"1  c #294840",
"2  c #2B414F",
"3  c #434343",
"4  c gray30",
"5  c gray33",
"6  c #626262",
"7  c #6E6E6E",
"8  c #7D7D7D",
"9  c #F50200",
"0  c #FC0101",
"q  c #FB0B03",
"w  c #FF020B",
"e  c #F00808",
"r  c #FF0B0D",
"t  c #F2110D",
"y  c #FC0114",
"u  c #FF0E10",
"i  c #FF1C16",
"p  c #FF231C",
"a  c #FC2415",
"s  c #FA2129",
"d  c #FB2E2C",
"f  c #F72924",
"g  c #F43229",
"h  c #FF2430",
"j  c #F92D30",
"k  c #FF3036",
"l  c #FD3B3E",
"z  c #FC4C3F",
"x  c #FF3B44",
"c  c #FF3A4A",
"v  c #F94745",
"b  c #F9494C",
"n  c #F5574E",
"m  c #FD534D",
"M  c #F05751",
"N  c #FF5551",
"B  c #F65F56",
"V  c #FF5B5F",
"C  c #FF685D",
"Z  c #F9715B",
"A  c #EE696E",
"S  c #FF6562",
"D  c #FF6A67",
"F  c #FC646A",
"G  c #F26B6F",
"H  c #FF6C6A",
"J  c #F87364",
"K  c #FF6C72",
"L  c #FF6C78",
"P  c #EF7870",
"I  c #F77670",
"U  c #FF7777",
"Y  c #F87D75",
"T  c #F57778",
"R  c #F77B79",
"E  c #F47974",
"W  c #F4837F",
"Q  c #FF877F",
"!  c #F57C81",
"~  c #FF7D85",
"^  c #848484",
"/  c #8B8B8B",
"(  c #949494",
")  c #9B9B9B",
"_  c #A4A4A4",
"`  c gray67",
"'  c #B3B3B3",
"]  c #BCBCBC",
"[  c #FD8385",
"{  c #FB8883",
"}  c #FE838B",
"|  c #FF8F89",
" . c #FC9287",
".. c #F0938E",
"X. c #FB908A",
"o. c #FE9D8A",
"O. c #FE8C94",
"+. c #FF889D",
"@. c #EF9D92",
"#. c #FF9093",
"$. c #F69B93",
"%. c #FD9B95",
"&. c #F3979A",
"*. c #FD969C",
"=. c #FD9D9C",
"-. c #FEA29B",
";. c #F5A292",
":. c #EF9DA1",
">. c #FA9DA3",
",. c #FF9CA8",
"<. c #F49DA3",
"1. c #FEA2A7",
"2. c #F6ADA4",
"3. c #FBAAA3",
"4. c #FFADAC",
"5. c #F3A5A3",
"6. c #EEB1AC",
"7. c #FFB2A3",
"8. c #FEB3AE",
"9. c #FEBBAD",
"0. c #FFADB6",
"q. c #FDADBA",
"w. c #FDB4B3",
"e. c #FEB4BB",
"r. c #FFB9B8",
"t. c #FEC4AC",
"y. c #FFC1BA",
"u. c #F9C9BF",
"i. c #F5C4BD",
"p. c #F3B7C3",
"a. c #FABCC7",
"s. c #C5C5C5",
"d. c #CDCDCD",
"f. c #D2D2D2",
"g. c #DCDCDC",
"h. c #F7C4C1",
"j. c #FCC2C3",
"k. c #FDC4C9",
"l. c #F5CACB",
"z. c #FFCACA",
"x. c #F9CAC4",
"c. c #FFCBD2",
"v. c #FFCFD8",
"b. c #F4D6D6",
"n. c #FED1D4",
"m. c #FEDEDF",
"M. c #FFE2D2",
"N. c #E3E4E4",
"B. c #E8E9E1",
"V. c #E7EAE9",
"C. c #EEEEEE",
"Z. c #FFE5E3",
"A. c #F0EEEF",
"S. c #FBE9EC",
"D. c #E7F3EF",
"F. c #EEF0EF",
"G. c #F4F0EC",
"H. c #FEF0ED",
"J. c #FAFFEB",
"K. c #F6E4F0",
"L. c #FFEEF3",
"P. c #E7F0F7",
"I. c #EFF1F0",
"U. c #EBFFF1",
"Y. c #EBF6FF",
"T. c #E5FFFD",
"R. c #ECFEFE",
"E. c #F4F4F4",
"W. c #FDF5F4",
"Q. c #F2F2FC",
"!. c #FFF1FC",
"~. c #F5FCFB",
"^. c #FCFDFD",
/* pixels */
"C.C.C.C.C.C.C.C.F.C.C.C.C.C.C.C.C.A.C.C.C.C.C.C.F.C.A.C.V.A.A.C.C.A.C.C.C.C.V.A.C.C.C.C.C.A.F.C.C.C.A.C.C.C.C.C.C.C.C.C.A.C.C.C.",
"C.C.C.C.C.C.C.C.C.C.F.C.C.C.C.F.C.C.C.C.C.F.C.C.C.C.C.C.C.C.C.A.C.N.A.C.A.E.C.C.F.C.C.C.C.C.C.C.C.C.C.C.C.C.A.C.C.F.C.C.C.C.F.C.",
"C.C.C.C.A.C.C.C.C.C.A.C.C.C.C.C.C.C.A.C.C.C.C.C.E.A.C.V.C.C.A.V.E.V.A.C.C.A.E.V.C.C.C.C.C.C.C.C.C.C.C.C.C.C.C.C.C.C.C.C.C.C.C.C.",
"C.C.C.C.C.C.C.C.C.C.C.C.C.A.C.C.C.C.F.C.C.C.C.C.V.V.E.E.C.C.E.C.C.C.C.C.C.V.E.C.C.C.C.C.C.F.C.C.C.C.F.C.F.C.C.C.C.C.C.F.F.C.C.C.",
"C.C.A.C.C.C.C.C.C.C.C.C.C.F.C.C.C.C.C.I.C.C.C.C.E.C.C.C.C.C.A.C.C.E.C.A.C.C.C.A.C.C.F.C.C.C.C.C.C.C.C.C.F.C.C.C.F.C.C.C.C.A.C.C.",
"C.C.C.C.C.C.C.C.C.F.C.C.C.C.C.C.C.C.C.A.C.C.C.A.W.^.~.A.^.^.E.^.E.E.W.~.^.^.E.C.C.C.C.A.A.C.F.C.F.C.C.C.C.C.C.C.C.C.C.A.C.C.C.C.",
"I.C.C.C.C.C.C.C.C.C.C.C.C.C.C.C.C.C.C.C.C.C.A.E.^.^.^.^.^.^.^.^.^.^.^.^.^.E.^.E.C.C.C.C.C.C.C.C.C.A.C.C.C.C.F.C.C.C.C.C.C.C.C.C.",
"C.C.C.C.C.C.C.I.C.C.C.C.A.C.F.C.I.C.C.C.C.C.A.E.~.( 8 / ^ / ^ ^ 8 ^ 8 ^ ^ / E.C.C.F.C.C.C.C.C.C.C.C.C.C.C.C.C.A.C.C.C.C.C.F.C.C.",
"C.C.F.C.C.F.C.C.F.C.C.C.C.C.A.C.C.C.A.C.C.C.C.E.E.@                       X C.E.C.C.C.C.C.C.C.F.C.C.C.C.C.C.F.C.C.A.C.A.C.C.F.C.",
"C.C.C.C.C.C.C.C.C.A.F.C.C.C.C.C.C.C.I.C.C.C.C.^.E.@                       + g.E.C.C.C.C.C.A.C.C.A.C.C.C.C.C.C.C.C.C.C.C.C.C.C.C.",
"C.C.C.C.C.C.C.C.C.C.C.C.C.C.C.C.C.C.C.C.C.C.C.E.~.+           3 3         X N.~.C.C.C.C.C.C.F.C.C.C.C.F.C.C.C.C.C.F.C.C.C.C.C.C.",
"C.F.A.C.C.C.C.C.C.C.C.C.C.C.C.F.C.C.C.C.F.C.V.E.A.@   X   @ ^ N.^.s.+ X   + V.I.C.C.C.C.C.C.C.C.C.C.C.C.C.A.C.A.C.C.C.C.C.A.C.C.",
"C.C.A.C.C.C.F.C.C.C.C.C.C.C.C.C.C.C.A.C.C.C.C.E.^.+     X ^ ` E.^.~.`     X N.W.C.C.C.C.C.C.C.C.F.C.C.C.C.C.C.C.C.C.A.C.C.C.C.C.",
"C.C.C.C.C.C.C.A.A.C.F.C.C.F.C.C.C.C.F.C.C.C.C.~.E.+     5 ' ` ~.^.^.^.4   + A.A.C.C.C.C.C.C.C.C.C.C.C.C.F.C.C.C.F.C.C.C.F.C.C.C.",
"C.C.C.C.C.C.C.C.C.C.C.C.C.C.A.C.C.C.C.C.C.C.C.W.E.@   @ s.] s.^.^.^.~.'   X V.E.C.C.C.C.C.C.C.C.C.C.A.C.C.C.C.C.C.C.C.C.F.C.C.A.",
"C.C.F.C.C.F.C.C.C.C.C.C.F.C.C.C.C.C.C.C.C.C.A.E.E.+   < ) _ s.^.^.^.^.~.%   V.E.V.A.C.C.C.A.C.C.F.C.C.C.C.C.A.C.C.C.C.C.C.C.C.C.",
"C.C.C.C.F.C.C.C.C.C.C.C.C.C.C.C.F.F.C.C.C.C.V.Q.E.@   ) g.f._ ^.^.^.^.^.5   C.E.C.C.C.C.F.F.C.C.C.C.C.A.C.C.C.C.C.C.C.C.C.C.C.C.",
"F.C.C.C.C.C.C.C.C.C.F.A.C.C.C.C.C.A.A.C.F.C.C.W.E.@   ] f.s.` g.^.^.^.^.^   V.E.C.C.C.C.A.C.C.C.C.C.C.C.C.A.C.C.C.C.C.A.C.C.C.C.",
"C.A.C.C.C.F.A.C.C.C.C.C.C.C.C.C.C.C.F.C.A.C.C.E.E.+ + ) _ ] _ s.^.^.^.^.'   V.E.C.C.C.C.C.C.C.C.C.C.C.C.C.F.C.C.C.C.C.F.A.F.C.C.",
"C.C.C.C.C.C.C.C.C.C.C.C.C.C.C.C.C.C.F.C.A.C.V.~.A.+ , ] ] _ ^ g.^.^.^.^.d.+ N.E.C.C.C.C.C.C.C.C.C.C.C.C.C.C.C.C.C.C.C.F.C.C.C.C.",
"C.C.C.C.C.C.C.A.C.F.A.C.C.F.C.C.C.C.C.C.C.C.C.E.~.X 3 s._ ' s.' d.E.W.g.d.+ N.E.C.C.C.C.C.C.C.C.C.C.C.C.C.C.C.C.C.C.C.C.C.C.C.C.",
"C.F.C.C.C.C.C.C.C.C.C.C.A.F.C.C.C.C.C.C.A.C.C.~.W.X 3 _ ) ` d.( ` C.f.( s.* N.E.C.C.C.C.C.C.C.C.A.F.C.C.C.C.C.C.C.C.C.C.C.C.C.C.",
"C.C.A.C.C.C.C.C.C.C.C.C.C.C.C.C.C.C.C.C.C.C.C.E.E.X 3 ] ` d.' ) ` ^.d.) ] * N.Q.C.C.C.C.C.C.C.C.C.C.C.C.F.A.C.C.C.C.C.C.C.C.C.C.",
"C.C.C.C.C.C.F.C.C.C.C.C.C.C.C.C.C.C.C.C.C.C.C.W.~.X , ' ] f.] ~.' N.s.E.] % N.I.C.C.C.C.C.C.C.C.C.C.C.C.F.C.C.C.C.C.C.A.F.C.C.C.",
"A.C.C.F.F.C.C.C.C.C.C.C.C.C.C.C.C.C.F.C.F.C.C.~.E.+ 4 8 _ ' ' _ ] N.` ' s.* N.W.C.C.C.C.C.C.C.C.C.C.C.C.C.C.C.C.C.F.C.C.C.C.C.F.",
"C.C.C.C.C.C.C.C.C.A.F.C.C.C.C.C.C.C.C.C.F.C.C.E.A.@ ^ ) ` _ s.g.I.N.d.g.V.* g.E.C.C.C.C.C.C.C.C.C.C.C.C.C.C.C.C.A.F.C.C.C.C.C.A.",
"C.A.C.C.C.C.C.C.C.C.C.C.A.C.C.C.C.C.F.C.A.C.A.E.E.% 7 ( d.s.` W.^.N.g.^.E.* N.E.C.C.C.C.C.C.C.C.C.C.C.C.C.C.C.C.C.C.C.C.C.C.C.C.",
"C.C.C.C.C.A.C.C.A.C.C.C.F.C.C.C.C.C.C.C.A.C.C.E.C.* s.) ] ] ] E.^.V.f.^.C.% N.E.C.C.C.C.C.C.C.C.C.C.A.F.F.C.C.C.C.C.C.C.C.C.C.C.",
"C.C.C.F.C.C.C.C.C.C.C.C.C.C.C.C.C.C.F.C.C.C.C.E.E.@ 8 ^ s.s.s.^.^.E.s.^.C.% N.E.C.C.C.C.C.C.A.F.C.A.C.C.C.C.F.C.F.C.C.C.C.C.C.C.",
"C.F.C.C.C.C.F.C.C.C.C.A.F.C.C.C.C.C.C.C.C.C.C.^.A.@ 6 / s.' s.E.^.^.C.^.C.% N.E.C.C.C.C.C.C.C.F.C.F.C.C.C.C.A.C.A.C.C.C.C.C.F.C.",
"C.C.C.C.C.A.C.C.F.C.C.C.C.C.C.C.C.C.F.C.C.C.C.E.^.X 4 ) ' ` _ C.^.^.^.^.N.@ N.E.C.C.C.C.C.C.C.C.C.C.C.C.C.C.C.C.C.C.C.C.C.C.F.A.",
"C.C.C.A.C.C.C.C.C.C.C.C.C.C.A.C.C.C.F.C.A.C.V.E.E.@ + ' ] ) ( g.^.g.V.^.g.+ N.E.C.C.C.C.C.C.C.C.C.C.C.C.C.C.C.C.C.C.C.C.C.C.C.C.",
"C.C.C.C.C.C.C.C.C.C.C.F.C.C.C.C.C.C.C.C.C.C.C.~.E.@     _ ' ) N.^.d.g.^.]   C.E.V.A.C.C.C.C.C.C.C.C.C.C.C.C.C.C.G.C.F.C.C.C.C.C.",
"C.F.C.C.F.C.C.C.C.C.C.A.C.C.F.C.C.C.C.C.A.C.C.E.E.+   X 6 _ ( C.^.~.^.^.(   C.E.C.C.C.C.C.C.C.C.C.C.C.C.C.C.C.C.C.C.C.C.C.C.C.F.",
"C.C.C.C.C.A.C.C.C.C.C.C.C.C.A.C.C.C.C.C.A.C.C.E.E.@     5 d./ f.^.^.~.^.5   C.A.C.C.C.C.C.C.A.C.C.C.C.C.C.C.C.F.C.C.C.C.F.C.C.C.",
"A.C.C.C.C.C.C.C.C.C.C.C.C.C.C.C.C.C.C.C.C.C.C.W.E.+     @ ( ) ^.^.^.^.A.@   C.E.C.C.C.C.C.C.C.C.C.C.C.A.C.C.C.C.C.F.C.C.C.C.C.C.",
"C.C.C.F.A.C.C.C.C.F.C.C.F.C.C.C.C.C.A.C.F.C.C.~.E.+       8 ' f.^.^.W.'   X V.E.C.C.C.C.C.C.C.C.C.C.C.C.C.C.C.C.C.C.C.C.C.C.C.C.",
"C.C.C.C.C.C.F.C.C.C.C.C.C.C.C.C.C.C.C.C.C.C.V.E.C.+       X ^ ' E.~.^.<   + C.A.C.C.C.C.C.C.C.C.C.C.C.C.C.C.A.C.F.C.C.C.C.C.C.F.",
"C.C.C.C.C.C.C.C.C.C.A.C.C.C.C.C.C.C.C.C.A.C.C.E.E.+         + / E.^.7     X N.~.C.C.C.A.C.C.C.C.C.C.C.A.F.C.C.C.C.C.C.A.C.F.C.C.",
"C.C.C.C.C.C.C.F.C.C.C.C.C.C.C.A.C.C.C.C.C.C.C.E.C.+             @ @       + C.A.C.C.C.C.C.C.C.C.C.C.C.C.C.C.C.C.C.C.C.C.C.C.C.C.",
"C.C.C.C.C.C.C.A.C.C.A.F.C.C.C.C.C.C.F.I.C.C.C.~.B.o .         .     .   . O N.H.C.C.C.C.A.C.C.C.C.C.C.C.C.A.C.C.C.C.C.C.F.C.C.C.",
"F.A.C.C.F.C.C.C.C.C.C.C.C.C.F.C.C.C.V.I.C.C.V.~.W.2 # - & $ : = : ; > = & 1 P.Q.V.C.C.C.V.C.C.C.C.C.A.C.C.C.C.C.C.F.C.C.C.C.A.C.",
"C.C.C.C.F.C.C.C.C.C.F.C.C.C.C.C.C.C.C.F.C.C.C.~.z.+.o.<.5.>...$.>.&.*.,.X.} v.D.V.C.C.C.C.C.C.C.F.C.C.C.C.C.C.C.C.A.C.C.C.F.C.C.",
"C.C.C.C.C.C.C.C.C.C.C.C.C.C.C.C.C.C.C.C.C.C.C.W.-.0 q 9 0 0 0 0 0 q q 0 q 0 $.J.C.C.C.C.C.C.C.C.C.C.C.C.F.C.F.C.C.C.C.C.C.C.C.C.",
"C.F.C.C.C.C.C.C.A.C.C.C.C.C.C.C.C.C.C.C.C.K.V.~.%.G Z.j N c [ g b $.0 { s R h.Y.C.C.C.C.C.C.C.C.C.C.A.C.C.C.A.C.C.C.C.C.C.C.C.A.",
"A.C.C.C.C.C.A.C.C.C.C.C.C.C.C.C.C.C.C.F.C.C.V.~.8.i.Z.Y I  .l.r [ ^.0 4.B 8.9.Q.V.C.C.C.C.C.A.V.C.C.C.C.C.C.C.C.C.C.F.C.C.C.C.C.",
"C.C.C.C.C.C.C.C.C.C.C.C.C.C.C.C.C.C.C.C.A.C.V.~.a.4.F *.L w.6.0 1.^.u A 8.*.| R.C.C.C.C.C.C.C.C.C.C.C.F.C.C.C.C.C.C.A.C.C.C.C.C.",
"C.C.C.C.C.C.F.C.F.C.C.C.C.C.C.C.C.C.C.A.A.F.V.~.j.7.F >.J S.[ 0 4.S.g k ^.T O.T.V.C.C.C.C.C.C.C.C.C.C.C.C.F.C.C.A.C.C.C.C.C.C.F.",
"C.C.C.C.C.F.C.C.C.C.C.C.C.C.C.C.C.C.V.C.V.G.V.~.k.4.S =.C ^.l 0 q.l.N 0 ~.n } U.V.A.C.C.C.C.C.A.C.C.C.C.C.C.C.C.C.C.C.C.C.C.C.C.",
"C.C.C.F.C.C.C.C.C.C.C.C.C.F.C.C.A.C.F.G.A.A.C.~.x.w.F :.Z ^.x w 9.$.E q v.h | ~.A.C.C.C.C.C.A.C.A.C.C.F.C.C.A.C.C.C.C.C.C.C.C.C.",
"C.A.C.C.C.C.A.C.F.C.C.C.C.C.A.C.C.C.C.F.V.A.C.~.l.0.D >.H K.R e S.W.O.w x.p X.R.K.C.C.C.C.C.C.A.A.C.C.C.F.C.C.C.C.C.F.A.C.C.C.C.",
"C.C.C.C.C.C.C.C.C.A.C.C.F.C.C.C.A.F.V.G.A.A.C.~.h.r.V $.K q.2.d m.k.>.9 y.i } ~.V.C.C.C.C.C.A.A.C.C.C.C.F.C.C.C.C.C.C.C.C.A.F.C.",
"C.C.C.A.F.C.F.C.C.C.C.C.C.C.C.C.A.C.V.G.C.C.C.~.e.y.L.! W Q 3.~ %.l j.e k.d } T.K.C.C.C.C.C.F.A.C.C.C.C.C.C.C.C.C.C.C.C.C.C.C.C.",
"F.C.C.C.C.C.C.C.C.C.C.F.C.C.F.C.A.C.V.G.V.A.C.^.=.z n.s m v m H M a U 0 D q } T.V.C.C.C.C.C.F.A.F.C.C.C.F.C.C.C.C.C.C.C.C.C.C.C.",
"C.C.C.C.C.C.C.C.F.C.C.C.C.C.C.C.C.C.C.C.C.A.V.Q.=.q y 9 r y 0 0 w 0 0 q r 0 *.Y.C.C.C.C.C.C.F.C.C.C.C.A.C.C.A.C.C.C.C.C.F.F.C.C.",
"C.C.C.C.C.C.C.C.A.C.C.C.C.C.A.C.A.A.V.A.C.C.V.~.!.c.t.w.3.w.x.9.p.7.8.q.r.b.M.V.C.C.C.C.C.C.A.A.C.C.C.C.C.C.C.C.C.C.C.C.A.C.C.C.",
"F.C.C.C.C.C.C.F.C.C.C.C.C.C.C.C.C.A.C.C.C.C.C.A.~.^.~.^.~.^.~.^.^.~.~.^.^.~.I.V.A.C.C.C.C.C.C.C.C.C.C.C.C.C.C.C.F.A.C.C.C.A.C.C.",
"C.C.C.C.C.C.C.C.C.C.C.C.A.C.C.F.C.C.C.C.F.C.C.C.N.N.N.N.N.N.N.N.N.N.N.N.V.V.V.V.F.F.C.C.C.C.C.A.C.C.C.C.C.C.C.C.C.C.C.C.C.F.C.C.",
"C.C.F.C.C.A.C.C.C.C.C.C.F.C.C.C.C.C.C.C.C.C.C.C.E.F.A.A.I.A.C.A.I.C.C.C.C.C.E.C.C.C.C.C.C.C.C.F.C.C.C.C.C.F.C.C.C.C.C.C.C.C.C.C.",
"C.C.C.C.C.C.C.C.C.C.F.C.C.C.C.C.F.C.C.C.C.C.C.F.C.C.A.C.A.C.C.C.C.C.F.F.C.C.V.C.C.C.C.C.C.C.C.C.C.C.C.C.C.A.C.C.C.C.C.C.C.C.C.C.",
"A.C.C.C.C.A.C.C.C.C.C.C.C.C.A.C.C.C.C.C.C.C.C.C.C.C.C.C.C.C.C.C.A.C.C.V.C.C.C.A.C.C.C.C.C.C.C.C.F.C.C.C.F.F.A.C.C.A.C.C.C.C.C.F.",
"C.C.F.C.C.F.C.C.C.C.A.C.C.C.C.C.C.C.C.F.C.C.C.C.C.C.C.C.C.C.C.C.E.A.C.C.C.C.C.C.C.C.C.C.C.C.C.A.A.C.C.C.C.C.C.C.C.F.C.C.C.C.A.F.",
"C.C.C.C.C.C.C.C.C.C.C.F.C.C.C.C.F.C.C.C.C.C.C.C.C.C.C.C.C.C.C.C.V.C.C.C.E.A.C.C.A.C.C.C.C.C.F.F.C.C.C.C.C.C.C.C.C.C.C.C.C.C.C.C.",
"F.C.C.C.C.C.C.F.C.C.C.C.C.C.F.C.C.C.C.C.C.C.C.C.C.C.C.C.A.C.C.A.C.A.C.C.C.V.C.C.F.C.C.C.C.C.C.C.C.C.C.C.C.C.C.C.C.C.C.C.C.C.C.C."
};
